Coordinates
version=1
nRows=19
nColumns=34
inDegrees=yes

Units are S.I. units (second, meters, Newtons, ...)
If the header above contains a line with 'inDegrees', this indicates whether rotational values are in degrees (yes) or radians (no).

endheader
time	pelvis_tilt	pelvis_list	pelvis_rotation	pelvis_tx	pelvis_ty	pelvis_tz	hip_flexion_r	hip_adduction_r	hip_rotation_r	knee_angle_r	ankle_angle_r	subtalar_angle_r	mtp_angle_r	hip_flexion_l	hip_adduction_l	hip_rotation_l	knee_angle_l	ankle_angle_l	subtalar_angle_l	mtp_angle_l	lumbar_extension	lumbar_bending	lumbar_rotation	arm_flex_r	arm_add_r	arm_rot_r	elbow_flex_r	pro_sup_r	arm_flex_l	arm_add_l	arm_rot_l	elbow_flex_l	pro_sup_l
      8.21666670	      3.04908909	     -5.40913733	    -67.34626334	      1.75181574	      1.05001935	      6.59129564	     -8.33439416	     -1.03088272	      4.22461301	     42.23417411	     26.04581850	     10.54389702	      0.00000000	    -28.01936583	     -3.25629000	      2.76987171	      0.00000000	     32.01354827	     10.19151613	      0.00000000	     -9.18245536	     -0.71480052	      8.28891079	      6.88199993	     -7.97559869	     17.47468955	     20.29932804	    119.42307954	      7.36354841	      0.23700053	     -7.83302755	     16.66915683	    111.23881769
      8.23333330	      3.24066439	     -5.39830763	    -68.01023659	      1.75315182	      1.04855331	      6.59251178	     -8.27372070	     -2.14646205	      3.78246208	     42.46022344	     24.96803618	     16.22475373	      0.00000000	    -28.30377807	     -2.63024867	      4.42169496	      0.00000000	     31.64753720	      7.60558362	      0.00000000	     -9.00078310	     -0.89915097	      8.24913755	      6.93209897	     -7.80911847	     15.51161591	     20.13855197	    119.74817918	      7.32264298	      0.21786997	     -7.08083822	     16.32213000	    111.16412940
      8.25000000	      3.22793712	     -5.35439165	    -68.38104947	      1.75392862	      1.04747775	      6.59384582	     -8.34292851	     -2.23157931	      4.67556219	     41.87783802	     22.56230947	     17.62457743	      0.00000000	    -28.42394663	     -2.38364095	      4.49136543	      0.00000000	     31.88996808	      7.31781341	      0.00000000	     -8.64854153	     -1.08811085	      7.65093146	      7.23903528	     -7.45961095	     15.31097489	     19.95795201	    119.74817918	      7.12882217	     -0.10757351	     -6.99003454	     16.31220921	    111.18291556
      8.26666670	      2.67827057	     -5.88546898	    -68.99999516	      1.75551052	      1.04738032	      6.59446319	     -9.19528507	     -1.98752048	      4.66223752	     40.09471550	     19.18544704	     18.70920979	      0.00000000	    -28.96222318	     -2.67225335	      5.09554757	      0.00000000	     31.69429902	      5.40860999	      0.00000000	     -8.78853600	     -0.13899345	      7.09952427	      8.19706848	     -7.10118886	     13.90446572	     18.57974551	    119.74817918	      6.72190026	     -0.26362334	     -5.69570796	     17.00101212	    111.50591621
      8.28333330	      2.80053423	     -5.80692524	    -69.65065904	      1.75650759	      1.04622856	      6.59513813	     -9.37809164	     -2.70858926	      4.38540368	     39.01435092	     15.64539353	     18.78609214	      0.00000000	    -29.10106501	     -2.13347234	      5.36741495	      0.00000000	     31.73260489	      4.92142367	      0.00000000	     -8.66503705	     -0.24535490	      6.95508191	      8.36955140	     -7.03560140	     13.64110670	     18.65641496	    119.74817918	      6.74248802	     -0.63484285	     -5.23090448	     17.08421893	    111.63732710
      8.30000000	      2.90457162	     -5.93669380	    -70.13467212	      1.75694564	      1.04551581	      6.59609381	    -10.06171412	     -3.00695816	      4.82362291	     37.30781350	     11.94168211	     18.74791701	      0.00000000	    -29.15092670	     -1.77329273	      5.55047368	      0.52680675	     31.78634544	      3.80911438	      0.00000000	     -8.70677076	     -0.34913630	      6.25296328	      8.93525892	     -6.60283257	     12.95642431	     18.42335848	    119.74817918	      6.46155423	     -1.35690396	     -3.97174874	     17.50909283	    112.01947056
      8.31666670	      2.70098060	     -6.64430163	    -69.82164622	      1.75796417	      1.04553477	      6.59760465	    -11.69213947	     -1.76266378	      6.79470064	     35.24092185	      8.46944665	     15.59287123	      0.00000000	    -30.00000025	     -2.37053289	      7.86522214	      0.39407262	     31.36275720	      1.23430968	      0.00000000	     -8.98589318	      0.15092711	      5.33789214	      8.99471419	     -6.12471367	     10.09583685	     18.38466288	    119.74817918	      6.54134867	     -2.50022225	      1.73938802	     17.46568428	    113.69244993
      8.33333330	      3.16499352	     -6.50499475	    -69.87067382	      1.75694170	      1.04477864	      6.59716547	    -11.77418077	     -1.88357338	      8.26147115	     34.89016275	      7.16421911	     13.83907745	      0.00000000	    -29.80751754	     -1.85981115	      9.12174717	      0.72622732	     30.98157059	     -0.61838352	      0.00000000	     -9.12864217	     -0.49856227	      4.68536913	      9.41885504	     -5.57534354	      8.48062153	     18.42997268	    119.74817918	      6.89360196	     -3.48024971	      4.68409227	     18.01270367	    114.36167815
      8.35000000	      3.65852617	     -6.46008949	    -70.05053639	      1.75673367	      1.04438885	      6.59609301	    -12.18073720	     -2.37938477	      9.19364785	     34.10306512	      7.35948044	     13.07005443	      0.00000000	    -29.71387088	     -1.23212738	      9.24440759	      1.07039831	     31.01406075	     -0.89346625	      0.00000000	     -9.55906151	     -1.08108704	      3.91984582	     10.03774501	     -5.39648449	      8.14650477	     18.49746679	    119.74817918	      7.12075133	     -3.96792834	      5.33448740	     18.77177119	    114.52542972
      8.36666670	      3.53625813	     -6.63680778	    -70.26070403	      1.75721987	      1.04405845	      6.59627259	    -12.94588198	     -2.11046803	     10.20225041	     32.92937030	      7.03174452	     11.08422584	      0.00000000	    -30.00000025	     -1.26004325	      9.58552521	      0.90709866	     30.93346975	     -1.73347754	      0.00000000	     -9.71737023	     -0.85158397	      3.45722999	     10.23251294	     -5.04589495	      6.18846009	     18.42090188	    119.74817918	      7.42975702	     -4.68804009	      9.10649083	     19.29871725	    115.52548779
      8.38333330	      3.34909384	     -6.59543567	    -70.64909447	      1.75585846	      1.04366843	      6.59643579	    -12.83532911	     -2.13044341	     10.04196595	     32.75389204	      7.39966739	     10.85948239	      0.00000000	    -30.00000025	     -1.30029579	      9.35274365	      0.75456884	     31.03133989	     -1.92972696	      0.00000000	     -9.79256844	     -0.86444916	      3.20882315	     10.50481174	     -4.62293917	      6.15003326	     18.64824857	    119.74712925	      7.77580144	     -5.05771788	      9.21147567	     19.63834443	    115.55574473
      8.40000000	      3.43300037	     -6.46030525	    -71.16442753	      1.75447532	      1.04338084	      6.59585624	    -12.29479029	     -2.34262459	     10.15749413	     33.31025754	      8.07946945	      9.40829491	      0.00000000	    -30.00000025	     -0.95342810	      8.82019199	      0.52043458	     30.67609796	     -2.08463428	      0.00000000	    -10.00972901	     -1.14197757	      2.63090212	     11.12346123	     -3.93574328	      5.38020552	     19.17733087	    119.67907680	      7.39010302	     -5.98372238	     10.62743517	     21.77303554	    115.95779138
      8.41666670	      3.21041657	     -6.30074505	    -71.72422580	      1.75410677	      1.04316257	      6.59468644	    -11.99108883	     -2.53040987	      9.29626200	     33.29411756	      8.45046558	      8.46769407	      0.00000000	    -30.00000025	     -0.81704149	      8.44954535	      0.00000000	     30.69174942	     -2.25408437	      0.00000000	    -10.23363092	     -0.85197059	      2.36641334	     11.61697762	     -3.71912979	      5.22213998	     19.53354991	    119.66747538	      7.73319853	     -6.12222091	     10.94420303	     22.12613396	    116.05549435
      8.43333330	      3.52512394	     -6.26162725	    -72.01204111	      1.75306540	      1.04344828	      6.59354337	    -11.95531808	     -2.92634857	      8.90573477	     33.47486303	      7.91909545	      6.41817232	      0.00000000	    -30.00000025	     -0.36536668	      7.68971773	      0.00000000	     30.46138653	     -1.75844885	      0.00000000	    -11.07866138	     -1.22993023	      1.85989800	     11.95103344	     -3.18446459	      4.27767103	     20.36985433	    119.62082602	      7.95041210	     -7.18118172	     13.05359550	     24.19077311	    116.72827592
      8.45000000	      2.78798818	     -6.42576971	    -72.38943058	      1.75067844	      1.04456845	      6.59290400	    -12.06803616	     -1.96068472	      9.59525641	     33.01970638	      6.76572882	      4.40838060	      0.00000000	    -29.90282129	     -1.08381604	      4.18596506	      0.00000000	     31.61366941	      1.89817743	      0.00000000	    -11.53320039	     -0.56330510	      2.11766093	     11.94005198	     -2.42408489	      1.15577721	     21.42745220	    119.74817918	      9.37452835	     -8.20853565	     18.52462844	     24.12001660	    118.81964329
      8.46666670	      1.84913850	     -6.34365755	    -73.03522378	      1.74760938	      1.04586877	      6.59187160	    -11.00771935	     -1.03464475	      9.46869395	     33.73098654	      4.99641573	      3.20431008	      0.00000000	    -29.47691561	     -1.82253365	     -1.25263602	      0.00000000	     32.81566273	      7.64012696	      0.00000000	    -11.72949218	      0.24142660	      2.29198731	     12.29534226	     -1.73875211	      0.63909731	     22.40623510	    119.74817918	      9.85606068	     -8.89963987	     19.37278839	     25.80021393	    119.74817918
      8.48333330	      0.63845248	     -6.53493008	    -73.21026929	      1.74627144	      1.04756471	      6.59156653	    -10.21350250	      0.04507029	      7.78275891	     34.43611805	      2.67452797	      2.57221243	      0.00000000	    -29.31656086	     -3.05511826	     -4.34691068	      0.00000000	     33.42288674	     10.42081208	      0.00000000	    -12.04318453	      1.55692137	      2.18614570	     12.34158874	     -1.39577847	      0.52425464	     23.61833275	    119.74817918	     10.41595530	     -9.51143777	     21.45007539	     27.32486007	    119.74817918
      8.50000000	     -0.36794832	     -6.24751449	    -73.59385179	      1.74645001	      1.04835414	      6.59185130	     -9.47039973	      0.41980201	      6.06135053	     34.57739150	      1.14258186	      3.03813687	      0.00000000	    -28.79858945	     -3.73955153	     -5.27651422	      0.00000000	     33.46234342	     10.41588551	      0.00000000	    -11.90786551	      2.55253976	      2.18005324	     12.12411801	     -1.40685822	      0.52603827	     24.50564424	    119.74817918	     10.44951017	     -9.57669448	     21.93147578	     28.80622029	    119.74817918
      8.51666670	     -1.68044713	     -6.44877875	    -73.12129599	      1.74806535	      1.04948748	      6.59352781	    -10.35147932	      1.44533132	      4.30809314	     32.78979492	      1.19156000	      5.41405853	      0.00000000	    -28.71611378	     -5.32364012	     -8.49373454	      0.00000000	     34.36765077	     14.35034846	      0.00000000	    -12.04739724	      4.22811314	      1.64055205	     11.44249803	     -1.34375254	     -0.66282540	     25.77411413	    119.74817918	     10.75810055	     -9.91802528	     24.04570808	     29.88675564	    119.74817918
